<svg xmlns="http://www.w3.org/2000/svg" xmlns:xlink="http://www.w3.org/1999/xlink" width="500" zoomAndPan="magnify" viewBox="0 0 375 374.999991" height="500" preserveAspectRatio="xMidYMid meet" version="1.0"><defs><g><g id="id1"/></g><clipPath id="id2"><path d="M 1 1 L 374 1 L 374 374 L 1 374 Z M 1 1 " clip-rule="nonzero"/></clipPath><clipPath id="id3"><path d="M 373.949219 187.5 C 373.949219 190.550781 373.875 193.601562 373.726562 196.648438 C 373.574219 199.695312 373.351562 202.738281 373.050781 205.773438 C 372.753906 208.8125 372.378906 211.839844 371.933594 214.859375 C 371.484375 217.875 370.960938 220.882812 370.367188 223.875 C 369.773438 226.867188 369.105469 229.84375 368.363281 232.804688 C 367.621094 235.761719 366.808594 238.703125 365.921875 241.625 C 365.035156 244.542969 364.078125 247.441406 363.050781 250.3125 C 362.023438 253.1875 360.925781 256.03125 359.757812 258.851562 C 358.589844 261.671875 357.351562 264.460938 356.046875 267.21875 C 354.746094 269.976562 353.371094 272.699219 351.933594 275.390625 C 350.496094 278.082031 348.992188 280.738281 347.421875 283.355469 C 345.855469 285.972656 344.222656 288.550781 342.527344 291.085938 C 340.832031 293.625 339.074219 296.117188 337.257812 298.566406 C 335.441406 301.019531 333.5625 303.425781 331.628906 305.78125 C 329.691406 308.140625 327.699219 310.453125 325.648438 312.710938 C 323.601562 314.972656 321.496094 317.183594 319.339844 319.339844 C 317.183594 321.496094 314.972656 323.601562 312.710938 325.648438 C 310.453125 327.699219 308.140625 329.691406 305.78125 331.628906 C 303.425781 333.5625 301.019531 335.441406 298.566406 337.257812 C 296.117188 339.074219 293.625 340.832031 291.085938 342.527344 C 288.550781 344.222656 285.972656 345.855469 283.355469 347.421875 C 280.738281 348.992188 278.082031 350.496094 275.390625 351.933594 C 272.699219 353.371094 269.976562 354.742188 267.21875 356.046875 C 264.460938 357.351562 261.671875 358.589844 258.851562 359.757812 C 256.03125 360.925781 253.1875 362.023438 250.3125 363.050781 C 247.441406 364.078125 244.542969 365.035156 241.625 365.921875 C 238.703125 366.808594 235.761719 367.621094 232.804688 368.363281 C 229.84375 369.105469 226.867188 369.773438 223.875 370.367188 C 220.882812 370.960938 217.875 371.484375 214.859375 371.933594 C 211.839844 372.378906 208.8125 372.753906 205.773438 373.050781 C 202.738281 373.351562 199.695312 373.574219 196.648438 373.726562 C 193.601562 373.875 190.550781 373.949219 187.5 373.949219 C 184.449219 373.949219 181.398438 373.875 178.351562 373.726562 C 175.304688 373.574219 172.261719 373.351562 169.226562 373.050781 C 166.1875 372.753906 163.160156 372.378906 160.140625 371.933594 C 157.125 371.484375 154.117188 370.960938 151.125 370.367188 C 148.132812 369.773438 145.15625 369.105469 142.195312 368.363281 C 139.238281 367.621094 136.296875 366.808594 133.375 365.921875 C 130.457031 365.035156 127.558594 364.078125 124.6875 363.050781 C 121.8125 362.023438 118.96875 360.925781 116.148438 359.757812 C 113.328125 358.589844 110.539062 357.351562 107.78125 356.046875 C 105.023438 354.746094 102.300781 353.371094 99.609375 351.933594 C 96.917969 350.496094 94.261719 348.992188 91.644531 347.421875 C 89.027344 345.855469 86.449219 344.222656 83.914062 342.527344 C 81.375 340.832031 78.882812 339.074219 76.433594 337.257812 C 73.980469 335.441406 71.574219 333.5625 69.21875 331.628906 C 66.859375 329.691406 64.546875 327.699219 62.289062 325.648438 C 60.027344 323.601562 57.816406 321.496094 55.660156 319.339844 C 53.503906 317.183594 51.398438 314.972656 49.351562 312.710938 C 47.300781 310.453125 45.308594 308.140625 43.371094 305.78125 C 41.4375 303.425781 39.558594 301.019531 37.742188 298.566406 C 35.925781 296.117188 34.167969 293.625 32.472656 291.085938 C 30.777344 288.550781 29.144531 285.972656 27.578125 283.355469 C 26.007812 280.738281 24.503906 278.082031 23.066406 275.390625 C 21.628906 272.699219 20.253906 269.976562 18.953125 267.21875 C 17.648438 264.460938 16.410156 261.671875 15.242188 258.851562 C 14.074219 256.03125 12.976562 253.1875 11.949219 250.3125 C 10.921875 247.441406 9.964844 244.542969 9.078125 241.625 C 8.191406 238.703125 7.378906 235.761719 6.636719 232.804688 C 5.894531 229.84375 5.226562 226.867188 4.632812 223.875 C 4.039062 220.882812 3.515625 217.875 3.066406 214.859375 C 2.621094 211.839844 2.246094 208.8125 1.949219 205.773438 C 1.648438 202.738281 1.425781 199.695312 1.273438 196.648438 C 1.125 193.601562 1.050781 190.550781 1.050781 187.5 C 1.050781 184.449219 1.125 181.398438 1.273438 178.351562 C 1.425781 175.304688 1.648438 172.261719 1.949219 169.226562 C 2.246094 166.1875 2.621094 163.160156 3.066406 160.140625 C 3.515625 157.125 4.039062 154.117188 4.632812 151.125 C 5.226562 148.132812 5.894531 145.15625 6.636719 142.195312 C 7.378906 139.238281 8.191406 136.296875 9.078125 133.375 C 9.964844 130.457031 10.921875 127.558594 11.949219 124.6875 C 12.976562 121.8125 14.074219 118.96875 15.242188 116.148438 C 16.410156 113.328125 17.648438 110.539062 18.953125 107.78125 C 20.253906 105.023438 21.628906 102.300781 23.066406 99.609375 C 24.503906 96.917969 26.007812 94.261719 27.578125 91.644531 C 29.144531 89.027344 30.777344 86.449219 32.472656 83.914062 C 34.167969 81.375 35.925781 78.882812 37.742188 76.433594 C 39.558594 73.980469 41.4375 71.574219 43.371094 69.21875 C 45.308594 66.859375 47.300781 64.546875 49.351562 62.289062 C 51.398438 60.027344 53.503906 57.816406 55.660156 55.660156 C 57.816406 53.503906 60.027344 51.398438 62.289062 49.351562 C 64.546875 47.300781 66.859375 45.308594 69.21875 43.371094 C 71.574219 41.4375 73.980469 39.558594 76.433594 37.742188 C 78.882812 35.925781 81.375 34.167969 83.914062 32.472656 C 86.449219 30.777344 89.027344 29.144531 91.644531 27.578125 C 94.261719 26.007812 96.917969 24.503906 99.609375 23.066406 C 102.300781 21.628906 105.023438 20.253906 107.78125 18.953125 C 110.539062 17.648438 113.328125 16.410156 116.148438 15.242188 C 118.96875 14.074219 121.8125 12.976562 124.6875 11.949219 C 127.558594 10.921875 130.457031 9.964844 133.375 9.078125 C 136.296875 8.191406 139.238281 7.378906 142.195312 6.636719 C 145.15625 5.894531 148.132812 5.226562 151.125 4.632812 C 154.117188 4.039062 157.125 3.515625 160.140625 3.066406 C 163.160156 2.621094 166.1875 2.246094 169.226562 1.949219 C 172.261719 1.648438 175.304688 1.425781 178.351562 1.273438 C 181.398438 1.125 184.449219 1.050781 187.5 1.050781 C 190.550781 1.050781 193.601562 1.125 196.648438 1.273438 C 199.695312 1.425781 202.738281 1.648438 205.773438 1.949219 C 208.8125 2.246094 211.839844 2.621094 214.859375 3.066406 C 217.875 3.515625 220.882812 4.039062 223.875 4.632812 C 226.867188 5.226562 229.84375 5.894531 232.804688 6.636719 C 235.761719 7.378906 238.703125 8.191406 241.625 9.078125 C 244.542969 9.964844 247.441406 10.921875 250.3125 11.949219 C 253.1875 12.976562 256.03125 14.074219 258.851562 15.242188 C 261.671875 16.410156 264.460938 17.648438 267.21875 18.953125 C 269.976562 20.253906 272.699219 21.628906 275.390625 23.066406 C 278.082031 24.503906 280.738281 26.007812 283.355469 27.578125 C 285.972656 29.144531 288.550781 30.777344 291.085938 32.472656 C 293.625 34.167969 296.117188 35.925781 298.566406 37.742188 C 301.019531 39.558594 303.425781 41.4375 305.78125 43.371094 C 308.140625 45.308594 310.453125 47.300781 312.710938 49.351562 C 314.972656 51.398438 317.183594 53.503906 319.339844 55.660156 C 321.496094 57.816406 323.601562 60.027344 325.648438 62.289062 C 327.699219 64.546875 329.691406 66.859375 331.628906 69.21875 C 333.5625 71.574219 335.441406 73.980469 337.257812 76.433594 C 339.074219 78.882812 340.832031 81.375 342.527344 83.914062 C 344.222656 86.449219 345.855469 89.027344 347.421875 91.644531 C 348.992188 94.261719 350.496094 96.917969 351.933594 99.609375 C 353.371094 102.300781 354.742188 105.023438 356.046875 107.78125 C 357.351562 110.539062 358.589844 113.328125 359.757812 116.148438 C 360.925781 118.96875 362.023438 121.8125 363.050781 124.6875 C 364.078125 127.558594 365.035156 130.457031 365.921875 133.375 C 366.808594 136.296875 367.621094 139.238281 368.363281 142.195312 C 369.105469 145.15625 369.773438 148.132812 370.367188 151.125 C 370.960938 154.117188 371.484375 157.125 371.933594 160.140625 C 372.378906 163.160156 372.753906 166.1875 373.050781 169.226562 C 373.351562 172.261719 373.574219 175.304688 373.726562 178.351562 C 373.875 181.398438 373.949219 184.449219 373.949219 187.5 Z M 373.949219 187.5 " clip-rule="nonzero"/></clipPath><linearGradient x1="48.842112" gradientTransform="matrix(0.75, 0, 0, 0.75, 0.0000045, 0)" y1="-32.394399" x2="451.157618" gradientUnits="userSpaceOnUse" y2="532.394562" xlink:type="simple" xlink:actuate="onLoad" id="id4" xlink:show="other"><stop stop-opacity="1" stop-color="rgb(52.89917%, 0%, 100%)" offset="0"/><stop stop-opacity="1" stop-color="rgb(52.89917%, 0%, 100%)" offset="0.03125"/><stop stop-opacity="1" stop-color="rgb(52.89917%, 0%, 100%)" offset="0.046875"/><stop stop-opacity="1" stop-color="rgb(52.844238%, 0%, 99.894714%)" offset="0.0546875"/><stop stop-opacity="1" stop-color="rgb(52.590942%, 0%, 99.40033%)" offset="0.0585938"/><stop stop-opacity="1" stop-color="rgb(52.391052%, 0%, 99.01123%)" offset="0.0625"/><stop stop-opacity="1" stop-color="rgb(52.189636%, 0%, 98.622131%)" offset="0.0664062"/><stop stop-opacity="1" stop-color="rgb(51.989746%, 0%, 98.233032%)" offset="0.0703125"/><stop stop-opacity="1" stop-color="rgb(51.78833%, 0%, 97.843933%)" offset="0.0742188"/><stop stop-opacity="1" stop-color="rgb(51.58844%, 0%, 97.454834%)" offset="0.078125"/><stop stop-opacity="1" stop-color="rgb(51.38855%, 0%, 97.064209%)" offset="0.0820312"/><stop stop-opacity="1" stop-color="rgb(51.18866%, 0%, 96.67511%)" offset="0.0859375"/><stop stop-opacity="1" stop-color="rgb(50.987244%, 0%, 96.286011%)" offset="0.0898438"/><stop stop-opacity="1" stop-color="rgb(50.787354%, 0%, 95.896912%)" offset="0.09375"/><stop stop-opacity="1" stop-color="rgb(50.587463%, 0%, 95.507812%)" offset="0.0976562"/><stop stop-opacity="1" stop-color="rgb(50.387573%, 0%, 95.118713%)" offset="0.101562"/><stop stop-opacity="1" stop-color="rgb(50.186157%, 0%, 94.729614%)" offset="0.105469"/><stop stop-opacity="1" stop-color="rgb(49.986267%, 0%, 94.340515%)" offset="0.109375"/><stop stop-opacity="1" stop-color="rgb(49.786377%, 0%, 93.951416%)" offset="0.113281"/><stop stop-opacity="1" stop-color="rgb(49.586487%, 0%, 93.562317%)" offset="0.117187"/><stop stop-opacity="1" stop-color="rgb(49.385071%, 0%, 93.173218%)" offset="0.121094"/><stop stop-opacity="1" stop-color="rgb(49.185181%, 0%, 92.784119%)" offset="0.125"/><stop stop-opacity="1" stop-color="rgb(48.985291%, 0%, 92.39502%)" offset="0.128906"/><stop stop-opacity="1" stop-color="rgb(48.7854%, 0%, 92.00592%)" offset="0.132812"/><stop stop-opacity="1" stop-color="rgb(48.583984%, 0%, 91.616821%)" offset="0.136719"/><stop stop-opacity="1" stop-color="rgb(48.384094%, 0%, 91.227722%)" offset="0.140625"/><stop stop-opacity="1" stop-color="rgb(48.182678%, 0%, 90.838623%)" offset="0.144531"/><stop stop-opacity="1" stop-color="rgb(47.982788%, 0%, 90.449524%)" offset="0.148438"/><stop stop-opacity="1" stop-color="rgb(47.782898%, 0%, 90.060425%)" offset="0.152344"/><stop stop-opacity="1" stop-color="rgb(47.583008%, 0%, 89.671326%)" offset="0.15625"/><stop stop-opacity="1" stop-color="rgb(47.381592%, 0%, 89.282227%)" offset="0.160156"/><stop stop-opacity="1" stop-color="rgb(47.181702%, 0%, 88.893127%)" offset="0.164062"/><stop stop-opacity="1" stop-color="rgb(46.981812%, 0%, 88.504028%)" offset="0.167969"/><stop stop-opacity="1" stop-color="rgb(46.781921%, 0%, 88.114929%)" offset="0.171875"/><stop stop-opacity="1" stop-color="rgb(46.580505%, 0%, 87.724304%)" offset="0.175781"/><stop stop-opacity="1" stop-color="rgb(46.380615%, 0%, 87.335205%)" offset="0.179687"/><stop stop-opacity="1" stop-color="rgb(46.180725%, 0%, 86.946106%)" offset="0.183594"/><stop stop-opacity="1" stop-color="rgb(45.980835%, 0%, 86.557007%)" offset="0.1875"/><stop stop-opacity="1" stop-color="rgb(45.779419%, 0%, 86.167908%)" offset="0.191406"/><stop stop-opacity="1" stop-color="rgb(45.579529%, 0%, 85.778809%)" offset="0.195312"/><stop stop-opacity="1" stop-color="rgb(45.379639%, 0%, 85.389709%)" offset="0.199219"/><stop stop-opacity="1" stop-color="rgb(45.179749%, 0%, 85.00061%)" offset="0.203125"/><stop stop-opacity="1" stop-color="rgb(44.978333%, 0%, 84.611511%)" offset="0.207031"/><stop stop-opacity="1" stop-color="rgb(44.778442%, 0%, 84.222412%)" offset="0.210938"/><stop stop-opacity="1" stop-color="rgb(44.577026%, 0%, 83.833313%)" offset="0.214844"/><stop stop-opacity="1" stop-color="rgb(44.377136%, 0%, 83.444214%)" offset="0.21875"/><stop stop-opacity="1" stop-color="rgb(44.177246%, 0%, 83.055115%)" offset="0.222656"/><stop stop-opacity="1" stop-color="rgb(43.977356%, 0%, 82.666016%)" offset="0.226562"/><stop stop-opacity="1" stop-color="rgb(43.77594%, 0%, 82.276917%)" offset="0.230469"/><stop stop-opacity="1" stop-color="rgb(43.57605%, 0%, 81.887817%)" offset="0.234375"/><stop stop-opacity="1" stop-color="rgb(43.37616%, 0%, 81.498718%)" offset="0.238281"/><stop stop-opacity="1" stop-color="rgb(43.17627%, 0%, 81.109619%)" offset="0.242188"/><stop stop-opacity="1" stop-color="rgb(42.974854%, 0%, 80.72052%)" offset="0.246094"/><stop stop-opacity="1" stop-color="rgb(42.774963%, 0%, 80.331421%)" offset="0.25"/><stop stop-opacity="1" stop-color="rgb(42.575073%, 0%, 79.942322%)" offset="0.253906"/><stop stop-opacity="1" stop-color="rgb(42.375183%, 0%, 79.553223%)" offset="0.257812"/><stop stop-opacity="1" stop-color="rgb(42.173767%, 0%, 79.164124%)" offset="0.261719"/><stop stop-opacity="1" stop-color="rgb(41.973877%, 0%, 78.775024%)" offset="0.265625"/><stop stop-opacity="1" stop-color="rgb(41.773987%, 0%, 78.385925%)" offset="0.269531"/><stop stop-opacity="1" stop-color="rgb(41.574097%, 0%, 77.996826%)" offset="0.273438"/><stop stop-opacity="1" stop-color="rgb(41.372681%, 0%, 77.606201%)" offset="0.277344"/><stop stop-opacity="1" stop-color="rgb(41.172791%, 0%, 77.217102%)" offset="0.28125"/><stop stop-opacity="1" stop-color="rgb(40.971375%, 0%, 76.828003%)" offset="0.285156"/><stop stop-opacity="1" stop-color="rgb(40.771484%, 0%, 76.438904%)" offset="0.289062"/><stop stop-opacity="1" stop-color="rgb(40.571594%, 0%, 76.049805%)" offset="0.292969"/><stop stop-opacity="1" stop-color="rgb(40.371704%, 0%, 75.660706%)" offset="0.296875"/><stop stop-opacity="1" stop-color="rgb(40.170288%, 0%, 75.271606%)" offset="0.300781"/><stop stop-opacity="1" stop-color="rgb(39.970398%, 0%, 74.882507%)" offset="0.304688"/><stop stop-opacity="1" stop-color="rgb(39.770508%, 0%, 74.493408%)" offset="0.308594"/><stop stop-opacity="1" stop-color="rgb(39.570618%, 0%, 74.104309%)" offset="0.3125"/><stop stop-opacity="1" stop-color="rgb(39.369202%, 0%, 73.71521%)" offset="0.316406"/><stop stop-opacity="1" stop-color="rgb(39.169312%, 0%, 73.326111%)" offset="0.320312"/><stop stop-opacity="1" stop-color="rgb(38.969421%, 0%, 72.937012%)" offset="0.324219"/><stop stop-opacity="1" stop-color="rgb(38.769531%, 0%, 72.547913%)" offset="0.328125"/><stop stop-opacity="1" stop-color="rgb(38.568115%, 0%, 72.158813%)" offset="0.332031"/><stop stop-opacity="1" stop-color="rgb(38.368225%, 0%, 71.769714%)" offset="0.335938"/><stop stop-opacity="1" stop-color="rgb(38.166809%, 0%, 71.380615%)" offset="0.339844"/><stop stop-opacity="1" stop-color="rgb(37.966919%, 0%, 70.991516%)" offset="0.34375"/><stop stop-opacity="1" stop-color="rgb(37.767029%, 0%, 70.602417%)" offset="0.347656"/><stop stop-opacity="1" stop-color="rgb(37.567139%, 0%, 70.213318%)" offset="0.351562"/><stop stop-opacity="1" stop-color="rgb(37.365723%, 0%, 69.824219%)" offset="0.355469"/><stop stop-opacity="1" stop-color="rgb(37.165833%, 0%, 69.43512%)" offset="0.359375"/><stop stop-opacity="1" stop-color="rgb(36.965942%, 0%, 69.046021%)" offset="0.363281"/><stop stop-opacity="1" stop-color="rgb(36.766052%, 0%, 68.656921%)" offset="0.367188"/><stop stop-opacity="1" stop-color="rgb(36.564636%, 0%, 68.266296%)" offset="0.371094"/><stop stop-opacity="1" stop-color="rgb(36.364746%, 0%, 67.877197%)" offset="0.375"/><stop stop-opacity="1" stop-color="rgb(36.164856%, 0%, 67.488098%)" offset="0.378906"/><stop stop-opacity="1" stop-color="rgb(35.964966%, 0%, 67.098999%)" offset="0.382812"/><stop stop-opacity="1" stop-color="rgb(35.76355%, 0%, 66.7099%)" offset="0.386719"/><stop stop-opacity="1" stop-color="rgb(35.56366%, 0%, 66.320801%)" offset="0.390625"/><stop stop-opacity="1" stop-color="rgb(35.36377%, 0%, 65.931702%)" offset="0.394531"/><stop stop-opacity="1" stop-color="rgb(35.163879%, 0%, 65.542603%)" offset="0.398437"/><stop stop-opacity="1" stop-color="rgb(34.962463%, 0%, 65.153503%)" offset="0.402344"/><stop stop-opacity="1" stop-color="rgb(34.762573%, 0%, 64.764404%)" offset="0.40625"/><stop stop-opacity="1" stop-color="rgb(34.561157%, 0%, 64.375305%)" offset="0.410156"/><stop stop-opacity="1" stop-color="rgb(34.361267%, 0%, 63.986206%)" offset="0.414062"/><stop stop-opacity="1" stop-color="rgb(34.161377%, 0%, 63.597107%)" offset="0.417969"/><stop stop-opacity="1" stop-color="rgb(33.961487%, 0%, 63.208008%)" offset="0.421875"/><stop stop-opacity="1" stop-color="rgb(33.760071%, 0%, 62.818909%)" offset="0.425781"/><stop stop-opacity="1" stop-color="rgb(33.560181%, 0%, 62.42981%)" offset="0.429687"/><stop stop-opacity="1" stop-color="rgb(33.360291%, 0%, 62.04071%)" offset="0.433594"/><stop stop-opacity="1" stop-color="rgb(33.1604%, 0%, 61.651611%)" offset="0.4375"/><stop stop-opacity="1" stop-color="rgb(32.958984%, 0%, 61.262512%)" offset="0.441406"/><stop stop-opacity="1" stop-color="rgb(32.759094%, 0%, 60.873413%)" offset="0.445313"/><stop stop-opacity="1" stop-color="rgb(32.559204%, 0%, 60.484314%)" offset="0.449219"/><stop stop-opacity="1" stop-color="rgb(32.359314%, 0%, 60.095215%)" offset="0.453125"/><stop stop-opacity="1" stop-color="rgb(32.157898%, 0%, 59.706116%)" offset="0.457031"/><stop stop-opacity="1" stop-color="rgb(31.958008%, 0%, 59.317017%)" offset="0.460938"/><stop stop-opacity="1" stop-color="rgb(31.758118%, 0%, 58.927917%)" offset="0.464844"/><stop stop-opacity="1" stop-color="rgb(31.558228%, 0%, 58.538818%)" offset="0.46875"/><stop stop-opacity="1" stop-color="rgb(31.356812%, 0%, 58.148193%)" offset="0.472656"/><stop stop-opacity="1" stop-color="rgb(31.156921%, 0%, 57.759094%)" offset="0.476562"/><stop stop-opacity="1" stop-color="rgb(30.955505%, 0%, 57.369995%)" offset="0.480469"/><stop stop-opacity="1" stop-color="rgb(30.755615%, 0%, 56.980896%)" offset="0.484375"/><stop stop-opacity="1" stop-color="rgb(30.555725%, 0%, 56.591797%)" offset="0.488281"/><stop stop-opacity="1" stop-color="rgb(30.355835%, 0%, 56.202698%)" offset="0.492188"/><stop stop-opacity="1" stop-color="rgb(30.154419%, 0%, 55.813599%)" offset="0.496094"/><stop stop-opacity="1" stop-color="rgb(29.954529%, 0%, 55.4245%)" offset="0.5"/><stop stop-opacity="1" stop-color="rgb(29.754639%, 0%, 55.0354%)" offset="0.503906"/><stop stop-opacity="1" stop-color="rgb(29.554749%, 0%, 54.646301%)" offset="0.507812"/><stop stop-opacity="1" stop-color="rgb(29.353333%, 0%, 54.257202%)" offset="0.511719"/><stop stop-opacity="1" stop-color="rgb(29.153442%, 0%, 53.868103%)" offset="0.515625"/><stop stop-opacity="1" stop-color="rgb(28.953552%, 0%, 53.479004%)" offset="0.519531"/><stop stop-opacity="1" stop-color="rgb(28.753662%, 0%, 53.089905%)" offset="0.523438"/><stop stop-opacity="1" stop-color="rgb(28.552246%, 0%, 52.700806%)" offset="0.527344"/><stop stop-opacity="1" stop-color="rgb(28.352356%, 0%, 52.311707%)" offset="0.53125"/><stop stop-opacity="1" stop-color="rgb(28.152466%, 0%, 51.922607%)" offset="0.535156"/><stop stop-opacity="1" stop-color="rgb(27.952576%, 0%, 51.533508%)" offset="0.539063"/><stop stop-opacity="1" stop-color="rgb(27.75116%, 0%, 51.144409%)" offset="0.542969"/><stop stop-opacity="1" stop-color="rgb(27.55127%, 0%, 50.75531%)" offset="0.546875"/><stop stop-opacity="1" stop-color="rgb(27.349854%, 0%, 50.366211%)" offset="0.550781"/><stop stop-opacity="1" stop-color="rgb(27.149963%, 0%, 49.977112%)" offset="0.554688"/><stop stop-opacity="1" stop-color="rgb(26.950073%, 0%, 49.588013%)" offset="0.558594"/><stop stop-opacity="1" stop-color="rgb(26.750183%, 0%, 49.198914%)" offset="0.5625"/><stop stop-opacity="1" stop-color="rgb(26.548767%, 0%, 48.808289%)" offset="0.566406"/><stop stop-opacity="1" stop-color="rgb(26.348877%, 0%, 48.419189%)" offset="0.570313"/><stop stop-opacity="1" stop-color="rgb(26.148987%, 0%, 48.03009%)" offset="0.574219"/><stop stop-opacity="1" stop-color="rgb(25.949097%, 0%, 47.640991%)" offset="0.578125"/><stop stop-opacity="1" stop-color="rgb(25.747681%, 0%, 47.251892%)" offset="0.582031"/><stop stop-opacity="1" stop-color="rgb(25.547791%, 0%, 46.862793%)" offset="0.585938"/><stop stop-opacity="1" stop-color="rgb(25.3479%, 0%, 46.473694%)" offset="0.589844"/><stop stop-opacity="1" stop-color="rgb(25.14801%, 0%, 46.084595%)" offset="0.59375"/><stop stop-opacity="1" stop-color="rgb(24.946594%, 0%, 45.695496%)" offset="0.597656"/><stop stop-opacity="1" stop-color="rgb(24.746704%, 0%, 45.306396%)" offset="0.601562"/><stop stop-opacity="1" stop-color="rgb(24.546814%, 0%, 44.917297%)" offset="0.605469"/><stop stop-opacity="1" stop-color="rgb(24.346924%, 0%, 44.528198%)" offset="0.609375"/><stop stop-opacity="1" stop-color="rgb(24.145508%, 0%, 44.139099%)" offset="0.613281"/><stop stop-opacity="1" stop-color="rgb(23.945618%, 0%, 43.75%)" offset="0.617188"/><stop stop-opacity="1" stop-color="rgb(23.744202%, 0%, 43.360901%)" offset="0.621094"/><stop stop-opacity="1" stop-color="rgb(23.544312%, 0%, 42.971802%)" offset="0.625"/><stop stop-opacity="1" stop-color="rgb(23.344421%, 0%, 42.582703%)" offset="0.628906"/><stop stop-opacity="1" stop-color="rgb(23.144531%, 0%, 42.193604%)" offset="0.632812"/><stop stop-opacity="1" stop-color="rgb(22.943115%, 0%, 41.804504%)" offset="0.636719"/><stop stop-opacity="1" stop-color="rgb(22.743225%, 0%, 41.415405%)" offset="0.640625"/><stop stop-opacity="1" stop-color="rgb(22.543335%, 0%, 41.026306%)" offset="0.644531"/><stop stop-opacity="1" stop-color="rgb(22.343445%, 0%, 40.637207%)" offset="0.648438"/><stop stop-opacity="1" stop-color="rgb(22.142029%, 0%, 40.248108%)" offset="0.652344"/><stop stop-opacity="1" stop-color="rgb(21.942139%, 0%, 39.859009%)" offset="0.65625"/><stop stop-opacity="1" stop-color="rgb(21.742249%, 0%, 39.46991%)" offset="0.660156"/><stop stop-opacity="1" stop-color="rgb(21.542358%, 0%, 39.080811%)" offset="0.664062"/><stop stop-opacity="1" stop-color="rgb(21.340942%, 0%, 38.690186%)" offset="0.667969"/><stop stop-opacity="1" stop-color="rgb(21.141052%, 0%, 38.301086%)" offset="0.671875"/><stop stop-opacity="1" stop-color="rgb(20.939636%, 0%, 37.911987%)" offset="0.675781"/><stop stop-opacity="1" stop-color="rgb(20.739746%, 0%, 37.522888%)" offset="0.679688"/><stop stop-opacity="1" stop-color="rgb(20.539856%, 0%, 37.133789%)" offset="0.683594"/><stop stop-opacity="1" stop-color="rgb(20.339966%, 0%, 36.74469%)" offset="0.6875"/><stop stop-opacity="1" stop-color="rgb(20.13855%, 0%, 36.355591%)" offset="0.691406"/><stop stop-opacity="1" stop-color="rgb(19.93866%, 0%, 35.966492%)" offset="0.695312"/><stop stop-opacity="1" stop-color="rgb(19.73877%, 0%, 35.577393%)" offset="0.699219"/><stop stop-opacity="1" stop-color="rgb(19.538879%, 0%, 35.188293%)" offset="0.703125"/><stop stop-opacity="1" stop-color="rgb(19.337463%, 0%, 34.799194%)" offset="0.707031"/><stop stop-opacity="1" stop-color="rgb(19.137573%, 0%, 34.410095%)" offset="0.710938"/><stop stop-opacity="1" stop-color="rgb(18.937683%, 0%, 34.020996%)" offset="0.714844"/><stop stop-opacity="1" stop-color="rgb(18.737793%, 0%, 33.631897%)" offset="0.71875"/><stop stop-opacity="1" stop-color="rgb(18.536377%, 0%, 33.242798%)" offset="0.722656"/><stop stop-opacity="1" stop-color="rgb(18.336487%, 0%, 32.853699%)" offset="0.726562"/><stop stop-opacity="1" stop-color="rgb(18.136597%, 0%, 32.4646%)" offset="0.730469"/><stop stop-opacity="1" stop-color="rgb(17.936707%, 0%, 32.0755%)" offset="0.734375"/><stop stop-opacity="1" stop-color="rgb(17.735291%, 0%, 31.686401%)" offset="0.738281"/><stop stop-opacity="1" stop-color="rgb(17.5354%, 0%, 31.297302%)" offset="0.742188"/><stop stop-opacity="1" stop-color="rgb(17.333984%, 0%, 30.908203%)" offset="0.746094"/><stop stop-opacity="1" stop-color="rgb(17.134094%, 0%, 30.519104%)" offset="0.75"/><stop stop-opacity="1" stop-color="rgb(16.934204%, 0%, 30.130005%)" offset="0.753906"/><stop stop-opacity="1" stop-color="rgb(16.734314%, 0%, 29.740906%)" offset="0.757812"/><stop stop-opacity="1" stop-color="rgb(16.532898%, 0%, 29.350281%)" offset="0.761719"/><stop stop-opacity="1" stop-color="rgb(16.333008%, 0%, 28.961182%)" offset="0.765625"/><stop stop-opacity="1" stop-color="rgb(16.133118%, 0%, 28.572083%)" offset="0.769531"/><stop stop-opacity="1" stop-color="rgb(15.933228%, 0%, 28.182983%)" offset="0.773437"/><stop stop-opacity="1" stop-color="rgb(15.731812%, 0%, 27.793884%)" offset="0.777344"/><stop stop-opacity="1" stop-color="rgb(15.531921%, 0%, 27.404785%)" offset="0.78125"/><stop stop-opacity="1" stop-color="rgb(15.332031%, 0%, 27.015686%)" offset="0.785156"/><stop stop-opacity="1" stop-color="rgb(15.132141%, 0%, 26.626587%)" offset="0.789062"/><stop stop-opacity="1" stop-color="rgb(14.930725%, 0%, 26.237488%)" offset="0.792969"/><stop stop-opacity="1" stop-color="rgb(14.730835%, 0%, 25.848389%)" offset="0.796875"/><stop stop-opacity="1" stop-color="rgb(14.530945%, 0%, 25.45929%)" offset="0.800781"/><stop stop-opacity="1" stop-color="rgb(14.331055%, 0%, 25.07019%)" offset="0.804687"/><stop stop-opacity="1" stop-color="rgb(14.129639%, 0%, 24.681091%)" offset="0.808594"/><stop stop-opacity="1" stop-color="rgb(13.929749%, 0%, 24.291992%)" offset="0.8125"/><stop stop-opacity="1" stop-color="rgb(13.728333%, 0%, 23.902893%)" offset="0.816406"/><stop stop-opacity="1" stop-color="rgb(13.528442%, 0%, 23.513794%)" offset="0.820312"/><stop stop-opacity="1" stop-color="rgb(13.328552%, 0%, 23.124695%)" offset="0.824219"/><stop stop-opacity="1" stop-color="rgb(13.128662%, 0%, 22.735596%)" offset="0.828125"/><stop stop-opacity="1" stop-color="rgb(12.927246%, 0%, 22.346497%)" offset="0.832031"/><stop stop-opacity="1" stop-color="rgb(12.727356%, 0%, 21.957397%)" offset="0.835937"/><stop stop-opacity="1" stop-color="rgb(12.527466%, 0%, 21.568298%)" offset="0.839844"/><stop stop-opacity="1" stop-color="rgb(12.327576%, 0%, 21.179199%)" offset="0.84375"/><stop stop-opacity="1" stop-color="rgb(12.12616%, 0%, 20.7901%)" offset="0.847656"/><stop stop-opacity="1" stop-color="rgb(11.92627%, 0%, 20.401001%)" offset="0.851562"/><stop stop-opacity="1" stop-color="rgb(11.726379%, 0%, 20.011902%)" offset="0.855469"/><stop stop-opacity="1" stop-color="rgb(11.526489%, 0%, 19.622803%)" offset="0.859375"/><stop stop-opacity="1" stop-color="rgb(11.325073%, 0%, 19.232178%)" offset="0.863281"/><stop stop-opacity="1" stop-color="rgb(11.125183%, 0%, 18.843079%)" offset="0.867188"/><stop stop-opacity="1" stop-color="rgb(10.925293%, 0%, 18.453979%)" offset="0.871094"/><stop stop-opacity="1" stop-color="rgb(10.725403%, 0%, 18.06488%)" offset="0.875"/><stop stop-opacity="1" stop-color="rgb(10.523987%, 0%, 17.675781%)" offset="0.878906"/><stop stop-opacity="1" stop-color="rgb(10.324097%, 0%, 17.286682%)" offset="0.882812"/><stop stop-opacity="1" stop-color="rgb(10.122681%, 0%, 16.897583%)" offset="0.886719"/><stop stop-opacity="1" stop-color="rgb(9.922791%, 0%, 16.508484%)" offset="0.890625"/><stop stop-opacity="1" stop-color="rgb(9.7229%, 0%, 16.119385%)" offset="0.894531"/><stop stop-opacity="1" stop-color="rgb(9.52301%, 0%, 15.730286%)" offset="0.898438"/><stop stop-opacity="1" stop-color="rgb(9.321594%, 0%, 15.341187%)" offset="0.902344"/><stop stop-opacity="1" stop-color="rgb(9.121704%, 0%, 14.952087%)" offset="0.90625"/><stop stop-opacity="1" stop-color="rgb(8.921814%, 0%, 14.562988%)" offset="0.910156"/><stop stop-opacity="1" stop-color="rgb(8.721924%, 0%, 14.173889%)" offset="0.914062"/><stop stop-opacity="1" stop-color="rgb(8.520508%, 0%, 13.78479%)" offset="0.917969"/><stop stop-opacity="1" stop-color="rgb(8.320618%, 0%, 13.395691%)" offset="0.921875"/><stop stop-opacity="1" stop-color="rgb(8.120728%, 0%, 13.006592%)" offset="0.925781"/><stop stop-opacity="1" stop-color="rgb(7.920837%, 0%, 12.617493%)" offset="0.929687"/><stop stop-opacity="1" stop-color="rgb(7.719421%, 0%, 12.228394%)" offset="0.933594"/><stop stop-opacity="1" stop-color="rgb(7.519531%, 0%, 11.839294%)" offset="0.9375"/><stop stop-opacity="1" stop-color="rgb(7.50885%, 0%, 11.819458%)" offset="1"/></linearGradient></defs><g clip-path="url(#id2)"><g clip-path="url(#id3)"><path fill="url(#id4)" d="M 1.050781 1.050781 L 1.050781 373.949219 L 373.949219 373.949219 L 373.949219 1.050781 Z M 1.050781 1.050781 " fill-rule="nonzero"/></g></g><path fill="rgb(100%, 100%, 100%)" d="M 187.5 375 C 84.074219 375 0 290.925781 0 187.5 C 0 84.074219 84.074219 0 187.5 0 C 290.851562 0 375 84.074219 375 187.5 C 375 290.925781 290.851562 375 187.5 375 Z M 187.5 2.101562 C 85.273438 2.101562 2.101562 85.273438 2.101562 187.5 C 2.101562 289.726562 85.273438 372.898438 187.5 372.898438 C 289.726562 372.898438 372.898438 289.726562 372.898438 187.5 C 372.898438 85.273438 289.726562 2.101562 187.5 2.101562 Z M 187.5 2.101562 " fill-opacity="1" fill-rule="nonzero"/><g fill="rgb(100%, 100%, 100%)" fill-opacity="1"><g transform="translate(97.293886, 278.30658)"><g><path d="M 0.515625 -128.3125 C 0.515625 -135.769531 2.117188 -142.671875 5.328125 -149.015625 C 8.546875 -155.367188 12.738281 -160.875 17.90625 -165.53125 C 23.070312 -170.195312 29.039062 -173.882812 35.8125 -176.59375 C 42.59375 -179.300781 49.539062 -180.65625 56.65625 -180.65625 C 68.519531 -180.65625 78.851562 -176.929688 87.65625 -169.484375 C 92.40625 -165.410156 96.726562 -160.28125 100.625 -154.09375 C 104.519531 -147.914062 107.945312 -141.144531 110.90625 -133.78125 C 113.875 -126.414062 116.5 -118.664062 118.78125 -110.53125 C 121.070312 -102.394531 123.0625 -94.304688 124.75 -86.265625 C 126.445312 -78.222656 127.890625 -70.472656 129.078125 -63.015625 C 130.265625 -55.554688 131.195312 -48.78125 131.875 -42.6875 C 134.582031 -58.613281 137.503906 -74.28125 140.640625 -89.6875 C 143.773438 -105.101562 146.78125 -120.773438 149.65625 -136.703125 C 150.675781 -142.460938 151.648438 -148.222656 152.578125 -153.984375 C 153.515625 -159.742188 154.660156 -165.414062 156.015625 -171 C 156.523438 -173.375 157.582031 -175.445312 159.1875 -177.21875 C 160.800781 -179 162.960938 -179.890625 165.671875 -179.890625 C 166.679688 -179.890625 167.695312 -179.675781 168.71875 -179.25 C 169.738281 -178.832031 170.25 -177.945312 170.25 -176.59375 C 170.25 -175.75 169.90625 -173.757812 169.21875 -170.625 C 168.539062 -167.488281 167.78125 -163.84375 166.9375 -159.6875 C 166.09375 -155.539062 165.160156 -151.265625 164.140625 -146.859375 C 163.128906 -142.460938 162.195312 -138.484375 161.34375 -134.921875 C 156.945312 -114.421875 152.585938 -94.132812 148.265625 -74.0625 C 143.941406 -53.988281 139.578125 -32.859375 135.171875 -10.671875 C 135.515625 -8.972656 135.769531 -7.148438 135.9375 -5.203125 C 136.101562 -3.253906 136.1875 -1.601562 136.1875 -0.25 C 136.1875 1.78125 135.507812 3.390625 134.15625 4.578125 C 132.800781 5.765625 131.445312 6.359375 130.09375 6.359375 C 128.570312 6.359375 127.472656 6.019531 126.796875 5.34375 C 126.617188 3.644531 126.191406 0.253906 125.515625 -4.828125 C 124.835938 -9.910156 124.160156 -15.242188 123.484375 -20.828125 C 122.804688 -26.421875 122.128906 -31.671875 121.453125 -36.578125 C 120.773438 -41.492188 120.351562 -44.546875 120.1875 -45.734375 C 119.34375 -51.835938 118.195312 -59.164062 116.75 -67.71875 C 115.3125 -76.269531 113.445312 -85.203125 111.15625 -94.515625 C 108.875 -103.835938 106.082031 -113.070312 102.78125 -122.21875 C 99.476562 -131.363281 95.453125 -139.617188 90.703125 -146.984375 C 85.960938 -154.359375 80.457031 -160.289062 74.1875 -164.78125 C 67.925781 -169.269531 60.726562 -171.515625 52.59375 -171.515625 C 47.007812 -171.515625 41.84375 -170.5 37.09375 -168.46875 C 32.351562 -166.4375 28.242188 -163.679688 24.765625 -160.203125 C 21.296875 -156.734375 18.585938 -152.625 16.640625 -147.875 C 14.691406 -143.132812 13.71875 -137.96875 13.71875 -132.375 C 13.71875 -128.988281 14.3125 -125.472656 15.5 -121.828125 C 16.6875 -118.191406 18.460938 -115.1875 20.828125 -112.8125 C 22.523438 -111.289062 24.007812 -110.101562 25.28125 -109.25 C 26.550781 -108.40625 27.648438 -107.769531 28.578125 -107.34375 C 29.515625 -106.925781 30.234375 -106.503906 30.734375 -106.078125 C 31.242188 -105.660156 31.5 -105.023438 31.5 -104.171875 C 31.5 -102.316406 30.609375 -100.582031 28.828125 -98.96875 C 27.054688 -97.363281 25.070312 -96.5625 22.875 -96.5625 C 21.007812 -96.5625 19.441406 -96.8125 18.171875 -97.3125 C 16.898438 -97.820312 15.671875 -98.5 14.484375 -99.34375 C 9.398438 -102.5625 5.800781 -106.710938 3.6875 -111.796875 C 1.570312 -116.878906 0.515625 -122.382812 0.515625 -128.3125 Z M 11.4375 -23.125 C 11.4375 -24.3125 12.535156 -26.894531 14.734375 -30.875 C 16.941406 -34.851562 19.484375 -39.976562 22.359375 -46.25 C 24.898438 -51.664062 27.738281 -58.351562 30.875 -66.3125 C 34.007812 -74.28125 37.097656 -82.664062 40.140625 -91.46875 C 43.191406 -100.28125 46.15625 -109.175781 49.03125 -118.15625 C 51.914062 -127.132812 54.375 -135.347656 56.40625 -142.796875 C 56.914062 -144.492188 57.675781 -145.9375 58.6875 -147.125 C 59.707031 -148.3125 61.234375 -148.90625 63.265625 -148.90625 C 64.117188 -148.90625 64.882812 -148.734375 65.5625 -148.390625 C 66.238281 -148.046875 66.578125 -147.453125 66.578125 -146.609375 C 66.578125 -145.597656 66.320312 -144.203125 65.8125 -142.421875 C 65.300781 -140.640625 64.878906 -139.070312 64.546875 -137.71875 C 62.679688 -130.945312 60.347656 -123.113281 57.546875 -114.21875 C 54.753906 -105.320312 51.789062 -96.171875 48.65625 -86.765625 C 45.519531 -77.367188 42.257812 -68.140625 38.875 -59.078125 C 35.488281 -50.015625 32.351562 -42.007812 29.46875 -35.0625 C 28.289062 -32.007812 26.769531 -28.960938 24.90625 -25.921875 C 23.550781 -23.546875 22.109375 -21.929688 20.578125 -21.078125 C 19.054688 -20.234375 17.363281 -19.8125 15.5 -19.8125 C 12.789062 -19.8125 11.4375 -20.914062 11.4375 -23.125 Z M 11.4375 -23.125 "/></g></g></g></svg>