<svg xmlns="http://www.w3.org/2000/svg" xmlns:xlink="http://www.w3.org/1999/xlink" width="500" zoomAndPan="magnify" viewBox="0 0 375 374.999991" height="500" preserveAspectRatio="xMidYMid meet" version="1.0"><defs><g><g id="id1"/></g><clipPath id="id2"><path d="M 1 1 L 374 1 L 374 374 L 1 374 Z M 1 1 " clip-rule="nonzero"/></clipPath><clipPath id="id3"><path d="M 373.949219 187.5 C 373.949219 190.550781 373.875 193.601562 373.726562 196.648438 C 373.574219 199.695312 373.351562 202.738281 373.050781 205.773438 C 372.753906 208.8125 372.378906 211.839844 371.933594 214.859375 C 371.484375 217.875 370.960938 220.882812 370.367188 223.875 C 369.773438 226.867188 369.105469 229.84375 368.363281 232.804688 C 367.621094 235.761719 366.808594 238.703125 365.921875 241.625 C 365.035156 244.542969 364.078125 247.441406 363.050781 250.3125 C 362.023438 253.1875 360.925781 256.03125 359.757812 258.851562 C 358.589844 261.671875 357.351562 264.460938 356.046875 267.21875 C 354.746094 269.976562 353.371094 272.699219 351.933594 275.390625 C 350.496094 278.082031 348.992188 280.738281 347.421875 283.355469 C 345.855469 285.972656 344.222656 288.550781 342.527344 291.085938 C 340.832031 293.625 339.074219 296.117188 337.257812 298.566406 C 335.441406 301.019531 333.5625 303.425781 331.628906 305.78125 C 329.691406 308.140625 327.699219 310.453125 325.648438 312.710938 C 323.601562 314.972656 321.496094 317.183594 319.339844 319.339844 C 317.183594 321.496094 314.972656 323.601562 312.710938 325.648438 C 310.453125 327.699219 308.140625 329.691406 305.78125 331.628906 C 303.425781 333.5625 301.019531 335.441406 298.566406 337.257812 C 296.117188 339.074219 293.625 340.832031 291.085938 342.527344 C 288.550781 344.222656 285.972656 345.855469 283.355469 347.421875 C 280.738281 348.992188 278.082031 350.496094 275.390625 351.933594 C 272.699219 353.371094 269.976562 354.742188 267.21875 356.046875 C 264.460938 357.351562 261.671875 358.589844 258.851562 359.757812 C 256.03125 360.925781 253.1875 362.023438 250.3125 363.050781 C 247.441406 364.078125 244.542969 365.035156 241.625 365.921875 C 238.703125 366.808594 235.761719 367.621094 232.804688 368.363281 C 229.84375 369.105469 226.867188 369.773438 223.875 370.367188 C 220.882812 370.960938 217.875 371.484375 214.859375 371.933594 C 211.839844 372.378906 208.8125 372.753906 205.773438 373.050781 C 202.738281 373.351562 199.695312 373.574219 196.648438 373.726562 C 193.601562 373.875 190.550781 373.949219 187.5 373.949219 C 184.449219 373.949219 181.398438 373.875 178.351562 373.726562 C 175.304688 373.574219 172.261719 373.351562 169.226562 373.050781 C 166.1875 372.753906 163.160156 372.378906 160.140625 371.933594 C 157.125 371.484375 154.117188 370.960938 151.125 370.367188 C 148.132812 369.773438 145.15625 369.105469 142.195312 368.363281 C 139.238281 367.621094 136.296875 366.808594 133.375 365.921875 C 130.457031 365.035156 127.558594 364.078125 124.6875 363.050781 C 121.8125 362.023438 118.96875 360.925781 116.148438 359.757812 C 113.328125 358.589844 110.539062 357.351562 107.78125 356.046875 C 105.023438 354.746094 102.300781 353.371094 99.609375 351.933594 C 96.917969 350.496094 94.261719 348.992188 91.644531 347.421875 C 89.027344 345.855469 86.449219 344.222656 83.914062 342.527344 C 81.375 340.832031 78.882812 339.074219 76.433594 337.257812 C 73.980469 335.441406 71.574219 333.5625 69.21875 331.628906 C 66.859375 329.691406 64.546875 327.699219 62.289062 325.648438 C 60.027344 323.601562 57.816406 321.496094 55.660156 319.339844 C 53.503906 317.183594 51.398438 314.972656 49.351562 312.710938 C 47.300781 310.453125 45.308594 308.140625 43.371094 305.78125 C 41.4375 303.425781 39.558594 301.019531 37.742188 298.566406 C 35.925781 296.117188 34.167969 293.625 32.472656 291.085938 C 30.777344 288.550781 29.144531 285.972656 27.578125 283.355469 C 26.007812 280.738281 24.503906 278.082031 23.066406 275.390625 C 21.628906 272.699219 20.253906 269.976562 18.953125 267.21875 C 17.648438 264.460938 16.410156 261.671875 15.242188 258.851562 C 14.074219 256.03125 12.976562 253.1875 11.949219 250.3125 C 10.921875 247.441406 9.964844 244.542969 9.078125 241.625 C 8.191406 238.703125 7.378906 235.761719 6.636719 232.804688 C 5.894531 229.84375 5.226562 226.867188 4.632812 223.875 C 4.039062 220.882812 3.515625 217.875 3.066406 214.859375 C 2.621094 211.839844 2.246094 208.8125 1.949219 205.773438 C 1.648438 202.738281 1.425781 199.695312 1.273438 196.648438 C 1.125 193.601562 1.050781 190.550781 1.050781 187.5 C 1.050781 184.449219 1.125 181.398438 1.273438 178.351562 C 1.425781 175.304688 1.648438 172.261719 1.949219 169.226562 C 2.246094 166.1875 2.621094 163.160156 3.066406 160.140625 C 3.515625 157.125 4.039062 154.117188 4.632812 151.125 C 5.226562 148.132812 5.894531 145.15625 6.636719 142.195312 C 7.378906 139.238281 8.191406 136.296875 9.078125 133.375 C 9.964844 130.457031 10.921875 127.558594 11.949219 124.6875 C 12.976562 121.8125 14.074219 118.96875 15.242188 116.148438 C 16.410156 113.328125 17.648438 110.539062 18.953125 107.78125 C 20.253906 105.023438 21.628906 102.300781 23.066406 99.609375 C 24.503906 96.917969 26.007812 94.261719 27.578125 91.644531 C 29.144531 89.027344 30.777344 86.449219 32.472656 83.914062 C 34.167969 81.375 35.925781 78.882812 37.742188 76.433594 C 39.558594 73.980469 41.4375 71.574219 43.371094 69.21875 C 45.308594 66.859375 47.300781 64.546875 49.351562 62.289062 C 51.398438 60.027344 53.503906 57.816406 55.660156 55.660156 C 57.816406 53.503906 60.027344 51.398438 62.289062 49.351562 C 64.546875 47.300781 66.859375 45.308594 69.21875 43.371094 C 71.574219 41.4375 73.980469 39.558594 76.433594 37.742188 C 78.882812 35.925781 81.375 34.167969 83.914062 32.472656 C 86.449219 30.777344 89.027344 29.144531 91.644531 27.578125 C 94.261719 26.007812 96.917969 24.503906 99.609375 23.066406 C 102.300781 21.628906 105.023438 20.253906 107.78125 18.953125 C 110.539062 17.648438 113.328125 16.410156 116.148438 15.242188 C 118.96875 14.074219 121.8125 12.976562 124.6875 11.949219 C 127.558594 10.921875 130.457031 9.964844 133.375 9.078125 C 136.296875 8.191406 139.238281 7.378906 142.195312 6.636719 C 145.15625 5.894531 148.132812 5.226562 151.125 4.632812 C 154.117188 4.039062 157.125 3.515625 160.140625 3.066406 C 163.160156 2.621094 166.1875 2.246094 169.226562 1.949219 C 172.261719 1.648438 175.304688 1.425781 178.351562 1.273438 C 181.398438 1.125 184.449219 1.050781 187.5 1.050781 C 190.550781 1.050781 193.601562 1.125 196.648438 1.273438 C 199.695312 1.425781 202.738281 1.648438 205.773438 1.949219 C 208.8125 2.246094 211.839844 2.621094 214.859375 3.066406 C 217.875 3.515625 220.882812 4.039062 223.875 4.632812 C 226.867188 5.226562 229.84375 5.894531 232.804688 6.636719 C 235.761719 7.378906 238.703125 8.191406 241.625 9.078125 C 244.542969 9.964844 247.441406 10.921875 250.3125 11.949219 C 253.1875 12.976562 256.03125 14.074219 258.851562 15.242188 C 261.671875 16.410156 264.460938 17.648438 267.21875 18.953125 C 269.976562 20.253906 272.699219 21.628906 275.390625 23.066406 C 278.082031 24.503906 280.738281 26.007812 283.355469 27.578125 C 285.972656 29.144531 288.550781 30.777344 291.085938 32.472656 C 293.625 34.167969 296.117188 35.925781 298.566406 37.742188 C 301.019531 39.558594 303.425781 41.4375 305.78125 43.371094 C 308.140625 45.308594 310.453125 47.300781 312.710938 49.351562 C 314.972656 51.398438 317.183594 53.503906 319.339844 55.660156 C 321.496094 57.816406 323.601562 60.027344 325.648438 62.289062 C 327.699219 64.546875 329.691406 66.859375 331.628906 69.21875 C 333.5625 71.574219 335.441406 73.980469 337.257812 76.433594 C 339.074219 78.882812 340.832031 81.375 342.527344 83.914062 C 344.222656 86.449219 345.855469 89.027344 347.421875 91.644531 C 348.992188 94.261719 350.496094 96.917969 351.933594 99.609375 C 353.371094 102.300781 354.742188 105.023438 356.046875 107.78125 C 357.351562 110.539062 358.589844 113.328125 359.757812 116.148438 C 360.925781 118.96875 362.023438 121.8125 363.050781 124.6875 C 364.078125 127.558594 365.035156 130.457031 365.921875 133.375 C 366.808594 136.296875 367.621094 139.238281 368.363281 142.195312 C 369.105469 145.15625 369.773438 148.132812 370.367188 151.125 C 370.960938 154.117188 371.484375 157.125 371.933594 160.140625 C 372.378906 163.160156 372.753906 166.1875 373.050781 169.226562 C 373.351562 172.261719 373.574219 175.304688 373.726562 178.351562 C 373.875 181.398438 373.949219 184.449219 373.949219 187.5 Z M 373.949219 187.5 " clip-rule="nonzero"/></clipPath><linearGradient x1="48.842112" gradientTransform="matrix(0.75, 0, 0, 0.75, 0.0000045, 0)" y1="-32.394399" x2="451.157618" gradientUnits="userSpaceOnUse" y2="532.394562" xlink:type="simple" xlink:actuate="onLoad" id="id4" xlink:show="other"><stop stop-opacity="1" stop-color="rgb(14.099121%, 0%, 100%)" offset="0"/><stop stop-opacity="1" stop-color="rgb(14.099121%, 0%, 100%)" offset="0.03125"/><stop stop-opacity="1" stop-color="rgb(14.099121%, 0%, 100%)" offset="0.046875"/><stop stop-opacity="1" stop-color="rgb(14.082336%, 0%, 99.879456%)" offset="0.0546875"/><stop stop-opacity="1" stop-color="rgb(14.002991%, 0%, 99.319458%)" offset="0.0585938"/><stop stop-opacity="1" stop-color="rgb(13.941956%, 0%, 98.878479%)" offset="0.0625"/><stop stop-opacity="1" stop-color="rgb(13.879395%, 0%, 98.4375%)" offset="0.0664062"/><stop stop-opacity="1" stop-color="rgb(13.816833%, 0%, 97.996521%)" offset="0.0703125"/><stop stop-opacity="1" stop-color="rgb(13.754272%, 0%, 97.554016%)" offset="0.0742188"/><stop stop-opacity="1" stop-color="rgb(13.691711%, 0%, 97.113037%)" offset="0.078125"/><stop stop-opacity="1" stop-color="rgb(13.62915%, 0%, 96.672058%)" offset="0.0820312"/><stop stop-opacity="1" stop-color="rgb(13.568115%, 0%, 96.231079%)" offset="0.0859375"/><stop stop-opacity="1" stop-color="rgb(13.505554%, 0%, 95.7901%)" offset="0.0898438"/><stop stop-opacity="1" stop-color="rgb(13.442993%, 0%, 95.349121%)" offset="0.09375"/><stop stop-opacity="1" stop-color="rgb(13.380432%, 0%, 94.906616%)" offset="0.0976562"/><stop stop-opacity="1" stop-color="rgb(13.319397%, 0%, 94.465637%)" offset="0.101562"/><stop stop-opacity="1" stop-color="rgb(13.256836%, 0%, 94.024658%)" offset="0.105469"/><stop stop-opacity="1" stop-color="rgb(13.194275%, 0%, 93.583679%)" offset="0.109375"/><stop stop-opacity="1" stop-color="rgb(13.131714%, 0%, 93.1427%)" offset="0.113281"/><stop stop-opacity="1" stop-color="rgb(13.070679%, 0%, 92.701721%)" offset="0.117187"/><stop stop-opacity="1" stop-color="rgb(13.008118%, 0%, 92.259216%)" offset="0.121094"/><stop stop-opacity="1" stop-color="rgb(12.945557%, 0%, 91.818237%)" offset="0.125"/><stop stop-opacity="1" stop-color="rgb(12.882996%, 0%, 91.377258%)" offset="0.128906"/><stop stop-opacity="1" stop-color="rgb(12.82196%, 0%, 90.936279%)" offset="0.132812"/><stop stop-opacity="1" stop-color="rgb(12.759399%, 0%, 90.4953%)" offset="0.136719"/><stop stop-opacity="1" stop-color="rgb(12.696838%, 0%, 90.054321%)" offset="0.140625"/><stop stop-opacity="1" stop-color="rgb(12.634277%, 0%, 89.611816%)" offset="0.144531"/><stop stop-opacity="1" stop-color="rgb(12.573242%, 0%, 89.170837%)" offset="0.148438"/><stop stop-opacity="1" stop-color="rgb(12.510681%, 0%, 88.729858%)" offset="0.152344"/><stop stop-opacity="1" stop-color="rgb(12.44812%, 0%, 88.288879%)" offset="0.15625"/><stop stop-opacity="1" stop-color="rgb(12.385559%, 0%, 87.8479%)" offset="0.160156"/><stop stop-opacity="1" stop-color="rgb(12.322998%, 0%, 87.406921%)" offset="0.164062"/><stop stop-opacity="1" stop-color="rgb(12.260437%, 0%, 86.965942%)" offset="0.167969"/><stop stop-opacity="1" stop-color="rgb(12.199402%, 0%, 86.524963%)" offset="0.171875"/><stop stop-opacity="1" stop-color="rgb(12.136841%, 0%, 86.082458%)" offset="0.175781"/><stop stop-opacity="1" stop-color="rgb(12.07428%, 0%, 85.641479%)" offset="0.179687"/><stop stop-opacity="1" stop-color="rgb(12.011719%, 0%, 85.2005%)" offset="0.183594"/><stop stop-opacity="1" stop-color="rgb(11.950684%, 0%, 84.759521%)" offset="0.1875"/><stop stop-opacity="1" stop-color="rgb(11.888123%, 0%, 84.318542%)" offset="0.191406"/><stop stop-opacity="1" stop-color="rgb(11.825562%, 0%, 83.877563%)" offset="0.195312"/><stop stop-opacity="1" stop-color="rgb(11.763%, 0%, 83.435059%)" offset="0.199219"/><stop stop-opacity="1" stop-color="rgb(11.701965%, 0%, 82.99408%)" offset="0.203125"/><stop stop-opacity="1" stop-color="rgb(11.639404%, 0%, 82.553101%)" offset="0.207031"/><stop stop-opacity="1" stop-color="rgb(11.576843%, 0%, 82.112122%)" offset="0.210938"/><stop stop-opacity="1" stop-color="rgb(11.514282%, 0%, 81.671143%)" offset="0.214844"/><stop stop-opacity="1" stop-color="rgb(11.453247%, 0%, 81.230164%)" offset="0.21875"/><stop stop-opacity="1" stop-color="rgb(11.390686%, 0%, 80.787659%)" offset="0.222656"/><stop stop-opacity="1" stop-color="rgb(11.328125%, 0%, 80.34668%)" offset="0.226562"/><stop stop-opacity="1" stop-color="rgb(11.265564%, 0%, 79.905701%)" offset="0.230469"/><stop stop-opacity="1" stop-color="rgb(11.204529%, 0%, 79.464722%)" offset="0.234375"/><stop stop-opacity="1" stop-color="rgb(11.141968%, 0%, 79.023743%)" offset="0.238281"/><stop stop-opacity="1" stop-color="rgb(11.079407%, 0%, 78.582764%)" offset="0.242188"/><stop stop-opacity="1" stop-color="rgb(11.016846%, 0%, 78.140259%)" offset="0.246094"/><stop stop-opacity="1" stop-color="rgb(10.954285%, 0%, 77.69928%)" offset="0.25"/><stop stop-opacity="1" stop-color="rgb(10.891724%, 0%, 77.258301%)" offset="0.253906"/><stop stop-opacity="1" stop-color="rgb(10.830688%, 0%, 76.817322%)" offset="0.257812"/><stop stop-opacity="1" stop-color="rgb(10.768127%, 0%, 76.376343%)" offset="0.261719"/><stop stop-opacity="1" stop-color="rgb(10.705566%, 0%, 75.935364%)" offset="0.265625"/><stop stop-opacity="1" stop-color="rgb(10.643005%, 0%, 75.492859%)" offset="0.269531"/><stop stop-opacity="1" stop-color="rgb(10.58197%, 0%, 75.05188%)" offset="0.273438"/><stop stop-opacity="1" stop-color="rgb(10.519409%, 0%, 74.610901%)" offset="0.277344"/><stop stop-opacity="1" stop-color="rgb(10.456848%, 0%, 74.169922%)" offset="0.28125"/><stop stop-opacity="1" stop-color="rgb(10.394287%, 0%, 73.728943%)" offset="0.285156"/><stop stop-opacity="1" stop-color="rgb(10.333252%, 0%, 73.287964%)" offset="0.289062"/><stop stop-opacity="1" stop-color="rgb(10.270691%, 0%, 72.845459%)" offset="0.292969"/><stop stop-opacity="1" stop-color="rgb(10.20813%, 0%, 72.40448%)" offset="0.296875"/><stop stop-opacity="1" stop-color="rgb(10.145569%, 0%, 71.963501%)" offset="0.300781"/><stop stop-opacity="1" stop-color="rgb(10.084534%, 0%, 71.522522%)" offset="0.304688"/><stop stop-opacity="1" stop-color="rgb(10.021973%, 0%, 71.081543%)" offset="0.308594"/><stop stop-opacity="1" stop-color="rgb(9.959412%, 0%, 70.640564%)" offset="0.3125"/><stop stop-opacity="1" stop-color="rgb(9.896851%, 0%, 70.198059%)" offset="0.316406"/><stop stop-opacity="1" stop-color="rgb(9.835815%, 0%, 69.75708%)" offset="0.320312"/><stop stop-opacity="1" stop-color="rgb(9.773254%, 0%, 69.316101%)" offset="0.324219"/><stop stop-opacity="1" stop-color="rgb(9.710693%, 0%, 68.875122%)" offset="0.328125"/><stop stop-opacity="1" stop-color="rgb(9.648132%, 0%, 68.434143%)" offset="0.332031"/><stop stop-opacity="1" stop-color="rgb(9.585571%, 0%, 67.993164%)" offset="0.335938"/><stop stop-opacity="1" stop-color="rgb(9.52301%, 0%, 67.550659%)" offset="0.339844"/><stop stop-opacity="1" stop-color="rgb(9.461975%, 0%, 67.10968%)" offset="0.34375"/><stop stop-opacity="1" stop-color="rgb(9.399414%, 0%, 66.668701%)" offset="0.347656"/><stop stop-opacity="1" stop-color="rgb(9.336853%, 0%, 66.227722%)" offset="0.351562"/><stop stop-opacity="1" stop-color="rgb(9.274292%, 0%, 65.786743%)" offset="0.355469"/><stop stop-opacity="1" stop-color="rgb(9.213257%, 0%, 65.345764%)" offset="0.359375"/><stop stop-opacity="1" stop-color="rgb(9.150696%, 0%, 64.903259%)" offset="0.363281"/><stop stop-opacity="1" stop-color="rgb(9.088135%, 0%, 64.46228%)" offset="0.367188"/><stop stop-opacity="1" stop-color="rgb(9.025574%, 0%, 64.021301%)" offset="0.371094"/><stop stop-opacity="1" stop-color="rgb(8.964539%, 0%, 63.580322%)" offset="0.375"/><stop stop-opacity="1" stop-color="rgb(8.901978%, 0%, 63.139343%)" offset="0.378906"/><stop stop-opacity="1" stop-color="rgb(8.839417%, 0%, 62.698364%)" offset="0.382812"/><stop stop-opacity="1" stop-color="rgb(8.776855%, 0%, 62.255859%)" offset="0.386719"/><stop stop-opacity="1" stop-color="rgb(8.71582%, 0%, 61.81488%)" offset="0.390625"/><stop stop-opacity="1" stop-color="rgb(8.653259%, 0%, 61.373901%)" offset="0.394531"/><stop stop-opacity="1" stop-color="rgb(8.590698%, 0%, 60.932922%)" offset="0.398437"/><stop stop-opacity="1" stop-color="rgb(8.528137%, 0%, 60.491943%)" offset="0.402344"/><stop stop-opacity="1" stop-color="rgb(8.467102%, 0%, 60.050964%)" offset="0.40625"/><stop stop-opacity="1" stop-color="rgb(8.404541%, 0%, 59.609985%)" offset="0.410156"/><stop stop-opacity="1" stop-color="rgb(8.34198%, 0%, 59.169006%)" offset="0.414062"/><stop stop-opacity="1" stop-color="rgb(8.279419%, 0%, 58.726501%)" offset="0.417969"/><stop stop-opacity="1" stop-color="rgb(8.218384%, 0%, 58.285522%)" offset="0.421875"/><stop stop-opacity="1" stop-color="rgb(8.155823%, 0%, 57.844543%)" offset="0.425781"/><stop stop-opacity="1" stop-color="rgb(8.093262%, 0%, 57.403564%)" offset="0.429687"/><stop stop-opacity="1" stop-color="rgb(8.030701%, 0%, 56.962585%)" offset="0.433594"/><stop stop-opacity="1" stop-color="rgb(7.96814%, 0%, 56.521606%)" offset="0.4375"/><stop stop-opacity="1" stop-color="rgb(7.905579%, 0%, 56.079102%)" offset="0.441406"/><stop stop-opacity="1" stop-color="rgb(7.844543%, 0%, 55.638123%)" offset="0.445313"/><stop stop-opacity="1" stop-color="rgb(7.781982%, 0%, 55.197144%)" offset="0.449219"/><stop stop-opacity="1" stop-color="rgb(7.719421%, 0%, 54.756165%)" offset="0.453125"/><stop stop-opacity="1" stop-color="rgb(7.65686%, 0%, 54.315186%)" offset="0.457031"/><stop stop-opacity="1" stop-color="rgb(7.595825%, 0%, 53.874207%)" offset="0.460938"/><stop stop-opacity="1" stop-color="rgb(7.533264%, 0%, 53.431702%)" offset="0.464844"/><stop stop-opacity="1" stop-color="rgb(7.470703%, 0%, 52.990723%)" offset="0.46875"/><stop stop-opacity="1" stop-color="rgb(7.408142%, 0%, 52.549744%)" offset="0.472656"/><stop stop-opacity="1" stop-color="rgb(7.347107%, 0%, 52.108765%)" offset="0.476562"/><stop stop-opacity="1" stop-color="rgb(7.284546%, 0%, 51.667786%)" offset="0.480469"/><stop stop-opacity="1" stop-color="rgb(7.221985%, 0%, 51.226807%)" offset="0.484375"/><stop stop-opacity="1" stop-color="rgb(7.159424%, 0%, 50.784302%)" offset="0.488281"/><stop stop-opacity="1" stop-color="rgb(7.098389%, 0%, 50.343323%)" offset="0.492188"/><stop stop-opacity="1" stop-color="rgb(7.035828%, 0%, 49.902344%)" offset="0.496094"/><stop stop-opacity="1" stop-color="rgb(6.973267%, 0%, 49.461365%)" offset="0.5"/><stop stop-opacity="1" stop-color="rgb(6.910706%, 0%, 49.020386%)" offset="0.503906"/><stop stop-opacity="1" stop-color="rgb(6.84967%, 0%, 48.579407%)" offset="0.507812"/><stop stop-opacity="1" stop-color="rgb(6.787109%, 0%, 48.136902%)" offset="0.511719"/><stop stop-opacity="1" stop-color="rgb(6.724548%, 0%, 47.695923%)" offset="0.515625"/><stop stop-opacity="1" stop-color="rgb(6.661987%, 0%, 47.254944%)" offset="0.519531"/><stop stop-opacity="1" stop-color="rgb(6.599426%, 0%, 46.813965%)" offset="0.523438"/><stop stop-opacity="1" stop-color="rgb(6.536865%, 0%, 46.372986%)" offset="0.527344"/><stop stop-opacity="1" stop-color="rgb(6.47583%, 0%, 45.932007%)" offset="0.53125"/><stop stop-opacity="1" stop-color="rgb(6.413269%, 0%, 45.489502%)" offset="0.535156"/><stop stop-opacity="1" stop-color="rgb(6.350708%, 0%, 45.048523%)" offset="0.539063"/><stop stop-opacity="1" stop-color="rgb(6.288147%, 0%, 44.607544%)" offset="0.542969"/><stop stop-opacity="1" stop-color="rgb(6.227112%, 0%, 44.166565%)" offset="0.546875"/><stop stop-opacity="1" stop-color="rgb(6.164551%, 0%, 43.725586%)" offset="0.550781"/><stop stop-opacity="1" stop-color="rgb(6.10199%, 0%, 43.284607%)" offset="0.554688"/><stop stop-opacity="1" stop-color="rgb(6.039429%, 0%, 42.842102%)" offset="0.558594"/><stop stop-opacity="1" stop-color="rgb(5.978394%, 0%, 42.401123%)" offset="0.5625"/><stop stop-opacity="1" stop-color="rgb(5.915833%, 0%, 41.960144%)" offset="0.566406"/><stop stop-opacity="1" stop-color="rgb(5.853271%, 0%, 41.519165%)" offset="0.570313"/><stop stop-opacity="1" stop-color="rgb(5.79071%, 0%, 41.078186%)" offset="0.574219"/><stop stop-opacity="1" stop-color="rgb(5.729675%, 0%, 40.637207%)" offset="0.578125"/><stop stop-opacity="1" stop-color="rgb(5.667114%, 0%, 40.194702%)" offset="0.582031"/><stop stop-opacity="1" stop-color="rgb(5.604553%, 0%, 39.753723%)" offset="0.585938"/><stop stop-opacity="1" stop-color="rgb(5.541992%, 0%, 39.312744%)" offset="0.589844"/><stop stop-opacity="1" stop-color="rgb(5.480957%, 0%, 38.871765%)" offset="0.59375"/><stop stop-opacity="1" stop-color="rgb(5.418396%, 0%, 38.430786%)" offset="0.597656"/><stop stop-opacity="1" stop-color="rgb(5.355835%, 0%, 37.989807%)" offset="0.601562"/><stop stop-opacity="1" stop-color="rgb(5.293274%, 0%, 37.547302%)" offset="0.605469"/><stop stop-opacity="1" stop-color="rgb(5.230713%, 0%, 37.106323%)" offset="0.609375"/><stop stop-opacity="1" stop-color="rgb(5.168152%, 0%, 36.665344%)" offset="0.613281"/><stop stop-opacity="1" stop-color="rgb(5.107117%, 0%, 36.224365%)" offset="0.617188"/><stop stop-opacity="1" stop-color="rgb(5.044556%, 0%, 35.783386%)" offset="0.621094"/><stop stop-opacity="1" stop-color="rgb(4.981995%, 0%, 35.342407%)" offset="0.625"/><stop stop-opacity="1" stop-color="rgb(4.919434%, 0%, 34.901428%)" offset="0.628906"/><stop stop-opacity="1" stop-color="rgb(4.858398%, 0%, 34.460449%)" offset="0.632812"/><stop stop-opacity="1" stop-color="rgb(4.795837%, 0%, 34.017944%)" offset="0.636719"/><stop stop-opacity="1" stop-color="rgb(4.733276%, 0%, 33.576965%)" offset="0.640625"/><stop stop-opacity="1" stop-color="rgb(4.670715%, 0%, 33.135986%)" offset="0.644531"/><stop stop-opacity="1" stop-color="rgb(4.60968%, 0%, 32.695007%)" offset="0.648438"/><stop stop-opacity="1" stop-color="rgb(4.547119%, 0%, 32.254028%)" offset="0.652344"/><stop stop-opacity="1" stop-color="rgb(4.484558%, 0%, 31.813049%)" offset="0.65625"/><stop stop-opacity="1" stop-color="rgb(4.421997%, 0%, 31.370544%)" offset="0.660156"/><stop stop-opacity="1" stop-color="rgb(4.360962%, 0%, 30.929565%)" offset="0.664062"/><stop stop-opacity="1" stop-color="rgb(4.298401%, 0%, 30.488586%)" offset="0.667969"/><stop stop-opacity="1" stop-color="rgb(4.23584%, 0%, 30.047607%)" offset="0.671875"/><stop stop-opacity="1" stop-color="rgb(4.173279%, 0%, 29.606628%)" offset="0.675781"/><stop stop-opacity="1" stop-color="rgb(4.112244%, 0%, 29.165649%)" offset="0.679688"/><stop stop-opacity="1" stop-color="rgb(4.049683%, 0%, 28.723145%)" offset="0.683594"/><stop stop-opacity="1" stop-color="rgb(3.987122%, 0%, 28.282166%)" offset="0.6875"/><stop stop-opacity="1" stop-color="rgb(3.924561%, 0%, 27.841187%)" offset="0.691406"/><stop stop-opacity="1" stop-color="rgb(3.862%, 0%, 27.400208%)" offset="0.695312"/><stop stop-opacity="1" stop-color="rgb(3.799438%, 0%, 26.959229%)" offset="0.699219"/><stop stop-opacity="1" stop-color="rgb(3.738403%, 0%, 26.51825%)" offset="0.703125"/><stop stop-opacity="1" stop-color="rgb(3.675842%, 0%, 26.075745%)" offset="0.707031"/><stop stop-opacity="1" stop-color="rgb(3.613281%, 0%, 25.634766%)" offset="0.710938"/><stop stop-opacity="1" stop-color="rgb(3.55072%, 0%, 25.193787%)" offset="0.714844"/><stop stop-opacity="1" stop-color="rgb(3.489685%, 0%, 24.752808%)" offset="0.71875"/><stop stop-opacity="1" stop-color="rgb(3.427124%, 0%, 24.311829%)" offset="0.722656"/><stop stop-opacity="1" stop-color="rgb(3.364563%, 0%, 23.87085%)" offset="0.726562"/><stop stop-opacity="1" stop-color="rgb(3.302002%, 0%, 23.428345%)" offset="0.730469"/><stop stop-opacity="1" stop-color="rgb(3.240967%, 0%, 22.987366%)" offset="0.734375"/><stop stop-opacity="1" stop-color="rgb(3.178406%, 0%, 22.546387%)" offset="0.738281"/><stop stop-opacity="1" stop-color="rgb(3.115845%, 0%, 22.105408%)" offset="0.742188"/><stop stop-opacity="1" stop-color="rgb(3.053284%, 0%, 21.664429%)" offset="0.746094"/><stop stop-opacity="1" stop-color="rgb(2.992249%, 0%, 21.22345%)" offset="0.75"/><stop stop-opacity="1" stop-color="rgb(2.929688%, 0%, 20.780945%)" offset="0.753906"/><stop stop-opacity="1" stop-color="rgb(2.867126%, 0%, 20.339966%)" offset="0.757812"/><stop stop-opacity="1" stop-color="rgb(2.804565%, 0%, 19.898987%)" offset="0.761719"/><stop stop-opacity="1" stop-color="rgb(2.74353%, 0%, 19.458008%)" offset="0.765625"/><stop stop-opacity="1" stop-color="rgb(2.680969%, 0%, 19.017029%)" offset="0.769531"/><stop stop-opacity="1" stop-color="rgb(2.618408%, 0%, 18.57605%)" offset="0.773437"/><stop stop-opacity="1" stop-color="rgb(2.555847%, 0%, 18.133545%)" offset="0.777344"/><stop stop-opacity="1" stop-color="rgb(2.494812%, 0%, 17.692566%)" offset="0.78125"/><stop stop-opacity="1" stop-color="rgb(2.432251%, 0%, 17.251587%)" offset="0.785156"/><stop stop-opacity="1" stop-color="rgb(2.36969%, 0%, 16.810608%)" offset="0.789062"/><stop stop-opacity="1" stop-color="rgb(2.307129%, 0%, 16.369629%)" offset="0.792969"/><stop stop-opacity="1" stop-color="rgb(2.244568%, 0%, 15.92865%)" offset="0.796875"/><stop stop-opacity="1" stop-color="rgb(2.182007%, 0%, 15.486145%)" offset="0.800781"/><stop stop-opacity="1" stop-color="rgb(2.120972%, 0%, 15.045166%)" offset="0.804687"/><stop stop-opacity="1" stop-color="rgb(2.058411%, 0%, 14.604187%)" offset="0.808594"/><stop stop-opacity="1" stop-color="rgb(1.99585%, 0%, 14.163208%)" offset="0.8125"/><stop stop-opacity="1" stop-color="rgb(1.933289%, 0%, 13.722229%)" offset="0.816406"/><stop stop-opacity="1" stop-color="rgb(1.872253%, 0%, 13.28125%)" offset="0.820312"/><stop stop-opacity="1" stop-color="rgb(1.809692%, 0%, 12.838745%)" offset="0.824219"/><stop stop-opacity="1" stop-color="rgb(1.747131%, 0%, 12.397766%)" offset="0.828125"/><stop stop-opacity="1" stop-color="rgb(1.68457%, 0%, 11.956787%)" offset="0.832031"/><stop stop-opacity="1" stop-color="rgb(1.623535%, 0%, 11.515808%)" offset="0.835937"/><stop stop-opacity="1" stop-color="rgb(1.560974%, 0%, 11.074829%)" offset="0.839844"/><stop stop-opacity="1" stop-color="rgb(1.498413%, 0%, 10.63385%)" offset="0.84375"/><stop stop-opacity="1" stop-color="rgb(1.435852%, 0%, 10.191345%)" offset="0.847656"/><stop stop-opacity="1" stop-color="rgb(1.374817%, 0%, 9.750366%)" offset="0.851562"/><stop stop-opacity="1" stop-color="rgb(1.312256%, 0%, 9.309387%)" offset="0.855469"/><stop stop-opacity="1" stop-color="rgb(1.249695%, 0%, 8.868408%)" offset="0.859375"/><stop stop-opacity="1" stop-color="rgb(1.187134%, 0%, 8.427429%)" offset="0.863281"/><stop stop-opacity="1" stop-color="rgb(1.126099%, 0%, 7.98645%)" offset="0.867188"/><stop stop-opacity="1" stop-color="rgb(1.063538%, 0%, 7.545471%)" offset="0.871094"/><stop stop-opacity="1" stop-color="rgb(1.000977%, 0%, 7.104492%)" offset="0.875"/><stop stop-opacity="1" stop-color="rgb(0.938416%, 0%, 6.661987%)" offset="0.878906"/><stop stop-opacity="1" stop-color="rgb(0.875854%, 0%, 6.221008%)" offset="0.882812"/><stop stop-opacity="1" stop-color="rgb(0.813293%, 0%, 5.780029%)" offset="0.886719"/><stop stop-opacity="1" stop-color="rgb(0.752258%, 0%, 5.33905%)" offset="0.890625"/><stop stop-opacity="1" stop-color="rgb(0.689697%, 0%, 4.898071%)" offset="0.894531"/><stop stop-opacity="1" stop-color="rgb(0.627136%, 0%, 4.457092%)" offset="0.898438"/><stop stop-opacity="1" stop-color="rgb(0.564575%, 0%, 4.014587%)" offset="0.902344"/><stop stop-opacity="1" stop-color="rgb(0.50354%, 0%, 3.573608%)" offset="0.90625"/><stop stop-opacity="1" stop-color="rgb(0.440979%, 0%, 3.132629%)" offset="0.910156"/><stop stop-opacity="1" stop-color="rgb(0.378418%, 0%, 2.69165%)" offset="0.914062"/><stop stop-opacity="1" stop-color="rgb(0.315857%, 0%, 2.250671%)" offset="0.917969"/><stop stop-opacity="1" stop-color="rgb(0.254822%, 0%, 1.809692%)" offset="0.921875"/><stop stop-opacity="1" stop-color="rgb(0.192261%, 0%, 1.367188%)" offset="0.925781"/><stop stop-opacity="1" stop-color="rgb(0.1297%, 0%, 0.926208%)" offset="0.929687"/><stop stop-opacity="1" stop-color="rgb(0.0671387%, 0%, 0.485229%)" offset="0.933594"/><stop stop-opacity="1" stop-color="rgb(0.00610352%, 0%, 0.0442505%)" offset="0.9375"/><stop stop-opacity="1" stop-color="rgb(0.00305176%, 0%, 0.0213623%)" offset="1"/></linearGradient></defs><g clip-path="url(#id2)"><g clip-path="url(#id3)"><path fill="url(#id4)" d="M 1.050781 1.050781 L 1.050781 373.949219 L 373.949219 373.949219 L 373.949219 1.050781 Z M 1.050781 1.050781 " fill-rule="nonzero"/></g></g><path fill="rgb(100%, 100%, 100%)" d="M 187.5 375 C 84.074219 375 0 290.925781 0 187.5 C 0 84.074219 84.074219 0 187.5 0 C 290.851562 0 375 84.074219 375 187.5 C 375 290.925781 290.851562 375 187.5 375 Z M 187.5 2.101562 C 85.273438 2.101562 2.101562 85.273438 2.101562 187.5 C 2.101562 289.726562 85.273438 372.898438 187.5 372.898438 C 289.726562 372.898438 372.898438 289.726562 372.898438 187.5 C 372.898438 85.273438 289.726562 2.101562 187.5 2.101562 Z M 187.5 2.101562 " fill-opacity="1" fill-rule="nonzero"/><g fill="rgb(100%, 100%, 100%)" fill-opacity="1"><g transform="translate(97.293886, 278.30658)"><g><path d="M 0.515625 -128.3125 C 0.515625 -135.769531 2.117188 -142.671875 5.328125 -149.015625 C 8.546875 -155.367188 12.738281 -160.875 17.90625 -165.53125 C 23.070312 -170.195312 29.039062 -173.882812 35.8125 -176.59375 C 42.59375 -179.300781 49.539062 -180.65625 56.65625 -180.65625 C 68.519531 -180.65625 78.851562 -176.929688 87.65625 -169.484375 C 92.40625 -165.410156 96.726562 -160.28125 100.625 -154.09375 C 104.519531 -147.914062 107.945312 -141.144531 110.90625 -133.78125 C 113.875 -126.414062 116.5 -118.664062 118.78125 -110.53125 C 121.070312 -102.394531 123.0625 -94.304688 124.75 -86.265625 C 126.445312 -78.222656 127.890625 -70.472656 129.078125 -63.015625 C 130.265625 -55.554688 131.195312 -48.78125 131.875 -42.6875 C 134.582031 -58.613281 137.503906 -74.28125 140.640625 -89.6875 C 143.773438 -105.101562 146.78125 -120.773438 149.65625 -136.703125 C 150.675781 -142.460938 151.648438 -148.222656 152.578125 -153.984375 C 153.515625 -159.742188 154.660156 -165.414062 156.015625 -171 C 156.523438 -173.375 157.582031 -175.445312 159.1875 -177.21875 C 160.800781 -179 162.960938 -179.890625 165.671875 -179.890625 C 166.679688 -179.890625 167.695312 -179.675781 168.71875 -179.25 C 169.738281 -178.832031 170.25 -177.945312 170.25 -176.59375 C 170.25 -175.75 169.90625 -173.757812 169.21875 -170.625 C 168.539062 -167.488281 167.78125 -163.84375 166.9375 -159.6875 C 166.09375 -155.539062 165.160156 -151.265625 164.140625 -146.859375 C 163.128906 -142.460938 162.195312 -138.484375 161.34375 -134.921875 C 156.945312 -114.421875 152.585938 -94.132812 148.265625 -74.0625 C 143.941406 -53.988281 139.578125 -32.859375 135.171875 -10.671875 C 135.515625 -8.972656 135.769531 -7.148438 135.9375 -5.203125 C 136.101562 -3.253906 136.1875 -1.601562 136.1875 -0.25 C 136.1875 1.78125 135.507812 3.390625 134.15625 4.578125 C 132.800781 5.765625 131.445312 6.359375 130.09375 6.359375 C 128.570312 6.359375 127.472656 6.019531 126.796875 5.34375 C 126.617188 3.644531 126.191406 0.253906 125.515625 -4.828125 C 124.835938 -9.910156 124.160156 -15.242188 123.484375 -20.828125 C 122.804688 -26.421875 122.128906 -31.671875 121.453125 -36.578125 C 120.773438 -41.492188 120.351562 -44.546875 120.1875 -45.734375 C 119.34375 -51.835938 118.195312 -59.164062 116.75 -67.71875 C 115.3125 -76.269531 113.445312 -85.203125 111.15625 -94.515625 C 108.875 -103.835938 106.082031 -113.070312 102.78125 -122.21875 C 99.476562 -131.363281 95.453125 -139.617188 90.703125 -146.984375 C 85.960938 -154.359375 80.457031 -160.289062 74.1875 -164.78125 C 67.925781 -169.269531 60.726562 -171.515625 52.59375 -171.515625 C 47.007812 -171.515625 41.84375 -170.5 37.09375 -168.46875 C 32.351562 -166.4375 28.242188 -163.679688 24.765625 -160.203125 C 21.296875 -156.734375 18.585938 -152.625 16.640625 -147.875 C 14.691406 -143.132812 13.71875 -137.96875 13.71875 -132.375 C 13.71875 -128.988281 14.3125 -125.472656 15.5 -121.828125 C 16.6875 -118.191406 18.460938 -115.1875 20.828125 -112.8125 C 22.523438 -111.289062 24.007812 -110.101562 25.28125 -109.25 C 26.550781 -108.40625 27.648438 -107.769531 28.578125 -107.34375 C 29.515625 -106.925781 30.234375 -106.503906 30.734375 -106.078125 C 31.242188 -105.660156 31.5 -105.023438 31.5 -104.171875 C 31.5 -102.316406 30.609375 -100.582031 28.828125 -98.96875 C 27.054688 -97.363281 25.070312 -96.5625 22.875 -96.5625 C 21.007812 -96.5625 19.441406 -96.8125 18.171875 -97.3125 C 16.898438 -97.820312 15.671875 -98.5 14.484375 -99.34375 C 9.398438 -102.5625 5.800781 -106.710938 3.6875 -111.796875 C 1.570312 -116.878906 0.515625 -122.382812 0.515625 -128.3125 Z M 11.4375 -23.125 C 11.4375 -24.3125 12.535156 -26.894531 14.734375 -30.875 C 16.941406 -34.851562 19.484375 -39.976562 22.359375 -46.25 C 24.898438 -51.664062 27.738281 -58.351562 30.875 -66.3125 C 34.007812 -74.28125 37.097656 -82.664062 40.140625 -91.46875 C 43.191406 -100.28125 46.15625 -109.175781 49.03125 -118.15625 C 51.914062 -127.132812 54.375 -135.347656 56.40625 -142.796875 C 56.914062 -144.492188 57.675781 -145.9375 58.6875 -147.125 C 59.707031 -148.3125 61.234375 -148.90625 63.265625 -148.90625 C 64.117188 -148.90625 64.882812 -148.734375 65.5625 -148.390625 C 66.238281 -148.046875 66.578125 -147.453125 66.578125 -146.609375 C 66.578125 -145.597656 66.320312 -144.203125 65.8125 -142.421875 C 65.300781 -140.640625 64.878906 -139.070312 64.546875 -137.71875 C 62.679688 -130.945312 60.347656 -123.113281 57.546875 -114.21875 C 54.753906 -105.320312 51.789062 -96.171875 48.65625 -86.765625 C 45.519531 -77.367188 42.257812 -68.140625 38.875 -59.078125 C 35.488281 -50.015625 32.351562 -42.007812 29.46875 -35.0625 C 28.289062 -32.007812 26.769531 -28.960938 24.90625 -25.921875 C 23.550781 -23.546875 22.109375 -21.929688 20.578125 -21.078125 C 19.054688 -20.234375 17.363281 -19.8125 15.5 -19.8125 C 12.789062 -19.8125 11.4375 -20.914062 11.4375 -23.125 Z M 11.4375 -23.125 "/></g></g></g></svg>